#!OML:ASF X:\für Bonn\!DataBase\2005_08_10_Bjorn_Final\c3d\bjorn.ASF
:FULLY-SPECIFIED
:DEGREES
138
root -0.809241 18.3005 15.5229 -550.518 17.9733 -538.001
lowerback -11.015 1.87475 3.78601
upperback 7.6361 2.58494 -2.80927
thorax 15.0868 1.93137 -4.64636
lowerneck -3.10232 0.476445 9.26976
upperneck 21.1349 1.71856 -3.11632
head 7.05759 1.83147 -2.38652
rclavicle 3.844e-014 -5.00937e-014
rhumerus 53.0937 17.0982 -79.8111
rradius 71.6507
rwrist 26.7804
rhand -50.5723 39.0516
rfingers 7.12502
rthumb -23.1383 10.4211
lclavicle 3.844e-014 -5.00937e-014
lhumerus 38.8141 -23.8382 88.503
lradius 73.5318
lwrist 35.4827
lhand -27.0293 -11.8203
lfingers 7.12502
lthumb -0.448397 18.159
rfemur 366.034 -8.56469 -343.269
rtibia 35.572
rfoot -28.256 10.6489
rtoes -17.3696
lfemur -6.94068 -3.95813 -6.36244
ltibia 39.3538
lfoot -15.9474 -1.80137
ltoes -20.9618
139
root -0.795796 18.3026 15.5186 -550.492 18.0983 -538.059
lowerback -11.0036 1.94337 3.80572
upperback 7.62817 2.67983 -2.8334
thorax 15.0852 1.97956 -4.66176
lowerneck -3.03035 0.469691 9.25997
upperneck 21.0888 1.71743 -3.11215
head 7.0296 1.83031 -2.38374
rclavicle -4.36705e-014 6.36111e-015
rhumerus 53.3724 17.0517 -79.838
rradius 71.0783
rwrist 26.8683
rhand -50.4942 39.1448
rfingers 7.12502
rthumb -23.0633 10.5049
lclavicle -4.36705e-014 6.36111e-015
lhumerus 38.8933 -23.7658 88.6761
lradius 73.1691
lwrist 35.8052
lhand -26.8866 -11.8359
lfingers 7.12502
lthumb -0.310559 18.1436
rfemur 366.009 -8.57866 -343.321
rtibia 35.5564
rfoot -28.2159 10.8115
rtoes -17.4279
lfemur -6.92009 -4.18484 -6.4651
ltibia 39.3807
lfoot -16.0375 -1.36939
ltoes -21.1092
140
root -0.782558 18.3041 15.5143 -550.452 18.2349 -538.1
lowerback -10.9937 2.02119 3.85819
upperback 7.61786 2.78144 -2.85974
thorax 15.085 2.03435 -4.69669
lowerneck -2.93026 0.463658 9.2408
upperneck 21.0154 1.71679 -3.09203
head 6.98772 1.82914 -2.37419
rclavicle 2.04003e-014 6.36111e-015
rhumerus 53.6231 17.0505 -79.8129
rradius 70.5058
rwrist 26.7157
rhand -50.285 39.1383
rfingers 7.12502
rthumb -22.8626 10.4735
lclavicle 2.04003e-014 6.36111e-015
lhumerus 38.9145 -23.7055 88.8351
lradius 72.8348
lwrist 36.1734
lhand -26.8049 -11.7395
lfingers 7.12502
lthumb -0.231632 18.2401
rfemur 365.977 -8.56384 -343.348
rtibia 35.5388
rfoot -28.148 11.0053
rtoes -17.1964
lfemur -6.91158 -4.40512 -6.55309
ltibia 39.4242
lfoot -16.1255 -0.921507
ltoes -21.3675
141
root -0.769783 18.306 15.5111 -550.417 18.3516 -538.136
lowerback -10.9842 2.07655 3.88552
upperback 7.62768 2.85415 -2.859
thorax 15.1022 2.07216 -4.69353
lowerneck -2.85831 0.469146 9.18444
upperneck 20.9591 1.7354 -3.08924
head 6.95717 1.83267 -2.36277
rclavicle -9.62863e-015 3.89618e-014
rhumerus 53.8925 17.0994 -79.7339
rradius 69.9297
rwrist 26.5235
rhand -50.0846 39.1584
rfingers 7.12502
rthumb -22.6703 10.47
lclavicle -9.62863e-015 3.89618e-014
lhumerus 38.9475 -23.624 88.9973
lradius 72.4867
lwrist 36.476
lhand -26.7926 -11.492
lfingers 7.12502
lthumb -0.219734 18.4877
rfemur 365.953 -8.55965 -343.365
rtibia 35.5191
rfoot -28.1168 11.1276
rtoes -17.1243
lfemur -6.91985 -4.57195 -6.62127
ltibia 39.4858
lfoot -16.2158 -0.521486
ltoes -21.6447
142
root -0.757502 18.3081 15.5085 -550.352 18.4583 -538.175
lowerback -10.9637 2.15043 3.93454
upperback 7.61167 2.95138 -2.88801
thorax 15.0883 2.12424 -4.73081
lowerneck -2.75977 0.456458 9.17362
upperneck 20.8773 1.7235 -3.07043
head 6.91233 1.82604 -2.35586
rclavicle 3.13086e-014 2.38542e-015
rhumerus 54.0833 17.1035 -79.703
rradius 69.3839
rwrist 26.3578
rhand -49.8598 39.1221
rfingers 7.12502
rthumb -22.4545 10.4075
lclavicle 3.13086e-014 2.38542e-015
lhumerus 38.9443 -23.6009 89.1158
lradius 72.1363
lwrist 36.7645
lhand -26.7668 -11.2489
lfingers 7.12502
lthumb -0.194831 18.7307
rfemur 365.885 -8.56563 -343.382
rtibia 35.5019
rfoot -28.0578 11.2578
rtoes -17.0342
lfemur -6.97132 -4.78914 -6.70751
ltibia 39.5688
lfoot -16.2911 -0.0975799
ltoes -21.9692
